<?xml version="1.0" encoding="UTF-8" standalone="no"?>
<!-- Created with Inkscape (http://www.inkscape.org/) -->

<svg
   xmlns:dc="http://purl.org/dc/elements/1.1/"
   xmlns:cc="http://creativecommons.org/ns#"
   xmlns:rdf="http://www.w3.org/1999/02/22-rdf-syntax-ns#"
   xmlns:svg="http://www.w3.org/2000/svg"
   xmlns="http://www.w3.org/2000/svg"
   xmlns:sodipodi="http://sodipodi.sourceforge.net/DTD/sodipodi-0.dtd"
   xmlns:inkscape="http://www.inkscape.org/namespaces/inkscape"
   width="20.32mm"
   height="128.5mm"
   viewBox="0 0 20.32 128.5"
   version="1.1"
   id="svg3705"
   inkscape:version="0.92.2 5c3e80d, 2017-08-06"
   sodipodi:docname="panel.svg">
  <defs
     id="defs3699" />
  <sodipodi:namedview
     id="base"
     pagecolor="#e6e6e6"
     bordercolor="#666666"
     borderopacity="1.0"
     inkscape:pageopacity="1"
     inkscape:pageshadow="2"
     inkscape:zoom="2"
     inkscape:cx="97.938312"
     inkscape:cy="444.99815"
     inkscape:document-units="mm"
     inkscape:current-layer="layer1"
     showgrid="false"
     showguides="true"
     inkscape:guide-bbox="true"
     inkscape:window-width="1440"
     inkscape:window-height="855"
     inkscape:window-x="0"
     inkscape:window-y="1"
     inkscape:window-maximized="1">
    <sodipodi:guide
       position="-13.011705,1.8588149"
       orientation="0,1"
       id="guide3731"
       inkscape:locked="false" />
    <sodipodi:guide
       position="10.263891,24.002958"
       orientation="1,0"
       id="guide3733"
       inkscape:locked="false" />
    <sodipodi:guide
       position="16.244426,126.39942"
       orientation="0,1"
       id="guide3735"
       inkscape:locked="false" />
  </sodipodi:namedview>
  <metadata
     id="metadata3702">
    <rdf:RDF>
      <cc:Work
         rdf:about="">
        <dc:format>image/svg+xml</dc:format>
        <dc:type
           rdf:resource="http://purl.org/dc/dcmitype/StillImage" />
        <dc:title></dc:title>
      </cc:Work>
    </rdf:RDF>
  </metadata>
  <g
     inkscape:groupmode="layer"
     id="layer2"
     inkscape:label="Layer 2">
    <rect
       style="fill:#f9f9f9;stroke-width:0.26231143"
       id="rect3872"
       width="20.32"
       height="128.5"
       x="2.7105054e-20"
       y="-1.9123178e-08" />
  </g>
  <g
     inkscape:label="Layer 1"
     inkscape:groupmode="layer"
     id="layer1"
     transform="translate(0,-168.5)">
    <g
       aria-label="CYC"
       style="font-style:normal;font-weight:normal;font-size:4.58611107px;line-height:1.25;font-family:sans-serif;letter-spacing:0px;word-spacing:0px;fill:#000000;fill-opacity:1;stroke:none;stroke-width:0.26458332"
       id="text3729"
       transform="translate(0,-8.17729)">
      <path
         d="m 8.6917326,292.02659 v 0.47698 q -0.2284098,-0.21274 -0.48817,-0.31799 -0.2575209,-0.10524 -0.5486315,-0.10524 -0.5732638,0 -0.8778103,0.35157 -0.3045464,0.34933 -0.3045464,1.01217 0,0.6606 0.3045464,1.01217 0.3045465,0.34933 0.8778103,0.34933 0.2911106,0 0.5486315,-0.10525 0.2597602,-0.10525 0.48817,-0.31798 v 0.47249 q -0.2373671,0.16124 -0.5038452,0.24185 -0.2642388,0.0806 -0.559828,0.0806 -0.7591268,0 -1.1957926,-0.46354 -0.4366659,-0.46578 -0.4366659,-1.26969 0,-0.80615 0.4366659,-1.26969 0.4366658,-0.46578 1.1957926,-0.46578 0.3000678,0 0.5643066,0.0806 0.2664782,0.0784 0.4993666,0.23736 z"
         style="font-size:4.58611107px;stroke-width:0.26458332"
         id="path3741"
         inkscape:connector-curvature="0" />
      <path
         d="m 8.859681,291.76907 h 0.4859307 l 0.9270753,1.37494 0.920357,-1.37494 h 0.485931 l -1.182357,1.75114 v 1.59216 h -0.45458 v -1.59216 z"
         style="font-size:4.58611107px;stroke-width:0.26458332"
         id="path3743"
         inkscape:connector-curvature="0" />
      <path
         d="m 14.379585,292.02659 v 0.47698 q -0.22841,-0.21274 -0.48817,-0.31799 -0.257521,-0.10524 -0.548631,-0.10524 -0.573264,0 -0.877811,0.35157 -0.304546,0.34933 -0.304546,1.01217 0,0.6606 0.304546,1.01217 0.304547,0.34933 0.877811,0.34933 0.29111,0 0.548631,-0.10525 0.25976,-0.10525 0.48817,-0.31798 v 0.47249 q -0.237367,0.16124 -0.503845,0.24185 -0.264239,0.0806 -0.559828,0.0806 -0.759127,0 -1.195793,-0.46354 -0.436666,-0.46578 -0.436666,-1.26969 0,-0.80615 0.436666,-1.26969 0.436666,-0.46578 1.195793,-0.46578 0.300068,0 0.564306,0.0806 0.266479,0.0784 0.499367,0.23736 z"
         style="font-size:4.58611107px;stroke-width:0.26458332"
         id="path3745"
         inkscape:connector-curvature="0" />
    </g>
    <g
       aria-label="STRONG KAR"
       style="font-style:normal;font-weight:normal;font-size:2.82222223px;line-height:1.25;font-family:sans-serif;letter-spacing:0px;word-spacing:0px;fill:#000000;fill-opacity:1;stroke:none;stroke-width:0.26458332"
       id="text3739"
       transform="matrix(1,0,0,1.0001546,0,5.6506332)">
      <path
         d="m 2.3185101,170.79278 v 0.27148 q -0.1584744,-0.0758 -0.2990343,-0.113 -0.1405599,-0.0372 -0.2714735,-0.0372 -0.2273763,0 -0.3513998,0.0882 -0.1226454,0.0882 -0.1226454,0.25081 0,0.13642 0.081304,0.2067 0.082682,0.0689 0.3114366,0.11162 l 0.1681207,0.0344 q 0.3114366,0.0593 0.4588867,0.20947 0.1488281,0.14882 0.1488281,0.39963 0,0.29903 -0.2011936,0.45337 -0.1998155,0.15434 -0.5870442,0.15434 -0.1460721,0 -0.3114367,-0.0331 -0.1639865,-0.0331 -0.3403754,-0.0978 v -0.28663 q 0.1694987,0.0951 0.3321072,0.14331 0.1626085,0.0482 0.3197049,0.0482 0.2384006,0 0.3679362,-0.0937 0.1295356,-0.0937 0.1295356,-0.26734 0,-0.15159 -0.093707,-0.23702 -0.092329,-0.0854 -0.3045465,-0.12816 l -0.1694987,-0.0331 q -0.3114366,-0.062 -0.4506185,-0.1943 -0.13918183,-0.13229 -0.13918183,-0.36793 0,-0.27286 0.19154733,-0.42995 0.1929253,-0.1571 0.5305447,-0.1571 0.144694,0 0.2949002,0.0262 0.1502061,0.0262 0.3073032,0.0786 z"
         style="font-size:2.82222223px;stroke-width:0.26458332"
         id="path3748"
         inkscape:connector-curvature="0" />
      <path
         d="m 2.5913616,170.72526 h 1.7404623 v 0.23426 H 3.6014637 v 1.82315 H 3.3217219 v -1.82315 H 2.5913616 Z"
         style="font-size:2.82222223px;stroke-width:0.26458332"
         id="path3750"
         inkscape:connector-curvature="0" />
      <path
         d="m 5.5775704,171.81804 q 0.089573,0.0303 0.1736328,0.12954 0.085438,0.0992 0.1708767,0.27285 l 0.2824979,0.56224 H 5.9055435 l -0.2632053,-0.52779 q -0.1019749,-0.20671 -0.1984375,-0.27423 -0.095085,-0.0675 -0.2604493,-0.0675 H 4.880283 v 0.86954 H 4.6019193 v -2.05741 h 0.6283854 q 0.3527778,0 0.5264106,0.14745 0.1736329,0.14745 0.1736329,0.4451 0,0.19431 -0.090951,0.32247 -0.089573,0.12815 -0.2618272,0.17776 z M 4.880283,170.95401 v 0.73036 h 0.3500217 q 0.2011936,0 0.3031684,-0.0923 0.1033529,-0.0937 0.1033529,-0.27423 0,-0.18052 -0.1033529,-0.27147 -0.1019748,-0.0923 -0.3031684,-0.0923 z"
         style="font-size:2.82222223px;stroke-width:0.26458332"
         id="path3752"
         inkscape:connector-curvature="0" />
      <path
         d="m 7.3993368,170.91405 q -0.3031684,0 -0.4823134,0.226 -0.1777669,0.226 -0.1777669,0.61598 0,0.38861 0.1777669,0.61461 0.179145,0.22599 0.4823134,0.22599 0.3031684,0 0.4795573,-0.22599 0.1777669,-0.226 0.1777669,-0.61461 0,-0.38998 -0.1777669,-0.61598 -0.1763889,-0.226 -0.4795573,-0.226 z m 0,-0.226 q 0.432704,0 0.6917751,0.29077 0.2590712,0.28939 0.2590712,0.77721 0,0.48645 -0.2590712,0.77721 -0.2590711,0.28939 -0.6917751,0.28939 -0.4340821,0 -0.6945313,-0.28939 -0.2590712,-0.28938 -0.2590712,-0.77721 0,-0.48782 0.2590712,-0.77721 0.2604492,-0.29077 0.6945313,-0.29077 z"
         style="font-size:2.82222223px;stroke-width:0.26458332"
         id="path3754"
         inkscape:connector-curvature="0" />
      <path
         d="m 8.7856435,170.72526 h 0.3748264 l 0.9122611,1.72117 v -1.72117 h 0.270096 v 2.05741 H 9.9680003 L 9.055739,171.0615 v 1.72117 H 8.7856435 Z"
         style="font-size:2.82222223px;stroke-width:0.26458332"
         id="path3756"
         inkscape:connector-curvature="0" />
      <path
         d="m 12.299641,172.48915 v -0.5526 h -0.454753 v -0.22875 h 0.730361 v 0.88332 q -0.161231,0.11438 -0.355534,0.17363 -0.194304,0.0579 -0.41479,0.0579 -0.482313,0 -0.755165,-0.28112 -0.271473,-0.2825 -0.271473,-0.78548 0,-0.50436 0.271473,-0.78548 0.272852,-0.2825 0.755165,-0.2825 0.201194,0 0.381717,0.0496 0.181901,0.0496 0.334863,0.14607 v 0.29628 q -0.15434,-0.13091 -0.327973,-0.19706 -0.173633,-0.0661 -0.36518,-0.0661 -0.377583,0 -0.567752,0.21084 -0.188791,0.21084 -0.188791,0.62838 0,0.41617 0.188791,0.62701 0.190169,0.21084 0.567752,0.21084 0.14745,0 0.263205,-0.0248 0.115755,-0.0262 0.208084,-0.0799 z"
         style="font-size:2.82222223px;stroke-width:0.26458332"
         id="path3758"
         inkscape:connector-curvature="0" />
      <path
         d="m 13.983603,170.72526 h 0.278364 v 0.86954 l 0.923286,-0.86954 h 0.35829 l -1.021127,0.95911 1.094163,1.0983 H 15.25002 l -0.988053,-0.99081 v 0.99081 h -0.278364 z"
         style="font-size:2.82222223px;stroke-width:0.26458332"
         id="path3760"
         inkscape:connector-curvature="0" />
      <path
         d="m 16.476475,170.99949 -0.377583,1.02388 h 0.756543 z m -0.157097,-0.27423 h 0.315571 l 0.784104,2.05741 h -0.289388 l -0.187413,-0.52779 h -0.92742 l -0.187413,0.52779 h -0.293523 z"
         style="font-size:2.82222223px;stroke-width:0.26458332"
         id="path3762"
         inkscape:connector-curvature="0" />
      <path
         d="m 18.696494,171.81804 q 0.08957,0.0303 0.173633,0.12954 0.08544,0.0992 0.170877,0.27285 l 0.282498,0.56224 h -0.299035 l -0.263205,-0.52779 q -0.101975,-0.20671 -0.198437,-0.27423 -0.09509,-0.0675 -0.26045,-0.0675 h -0.303168 v 0.86954 h -0.278364 v -2.05741 h 0.628386 q 0.352777,0 0.52641,0.14745 0.173633,0.14745 0.173633,0.4451 0,0.19431 -0.09095,0.32247 -0.08957,0.12815 -0.261828,0.17776 z m -0.697287,-0.86403 v 0.73036 h 0.350022 q 0.201193,0 0.303168,-0.0923 0.103353,-0.0937 0.103353,-0.27423 0,-0.18052 -0.103353,-0.27147 -0.101975,-0.0923 -0.303168,-0.0923 z"
         style="font-size:2.82222223px;stroke-width:0.26458332"
         id="path3764"
         inkscape:connector-curvature="0" />
    </g>
    <g
       aria-label="PITCH"
       style="font-style:normal;font-weight:normal;font-size:1.41111112px;line-height:1.25;font-family:sans-serif;letter-spacing:0px;word-spacing:0px;fill:#000000;fill-opacity:1;stroke:none;stroke-width:0.26458332"
       id="text3769"
       transform="translate(-0.19425942,16.458331)">
      <path
         d="m 8.6019325,183.10204 v 0.38654 h 0.1750109 q 0.097152,0 0.1502062,-0.0503 0.053054,-0.0503 0.053054,-0.14332 0,-0.0923 -0.053054,-0.14263 -0.053055,-0.0503 -0.1502062,-0.0503 z m -0.1391818,-0.11437 h 0.3141927 q 0.1729438,0 0.2611382,0.0785 0.088883,0.0779 0.088883,0.22875 0,0.15227 -0.088883,0.23013 -0.088194,0.0779 -0.2611382,0.0779 H 8.6019325 v 0.41341 H 8.4627507 Z"
         style="font-size:1.41111112px;stroke-width:0.26458332"
         id="path3771"
         inkscape:connector-curvature="0" />
      <path
         d="m 9.3143783,182.98767 h 0.1391818 v 1.0287 H 9.3143783 Z"
         style="font-size:1.41111112px;stroke-width:0.26458332"
         id="path3773"
         inkscape:connector-curvature="0" />
      <path
         d="M 9.5879188,182.98767 H 10.45815 v 0.11713 h -0.36518 v 0.91157 H 9.9530989 V 183.1048 H 9.5879188 Z"
         style="font-size:1.41111112px;stroke-width:0.26458332"
         id="path3775"
         inkscape:connector-curvature="0" />
      <path
         d="m 11.280839,183.0669 v 0.14677 q -0.07028,-0.0655 -0.150206,-0.0978 -0.07924,-0.0324 -0.16881,-0.0324 -0.176389,0 -0.270096,0.10818 -0.09371,0.10748 -0.09371,0.31143 0,0.20326 0.09371,0.31144 0.09371,0.10749 0.270096,0.10749 0.08957,0 0.16881,-0.0324 0.07993,-0.0324 0.150206,-0.0978 v 0.14539 q -0.07304,0.0496 -0.155029,0.0744 -0.08131,0.0248 -0.172255,0.0248 -0.233578,0 -0.367936,-0.14262 -0.134359,-0.14332 -0.134359,-0.39068 0,-0.24804 0.134359,-0.39067 0.134358,-0.14332 0.367936,-0.14332 0.09233,0 0.173633,0.0248 0.08199,0.0241 0.153651,0.073 z"
         style="font-size:1.41111112px;stroke-width:0.26458332"
         id="path3777"
         inkscape:connector-curvature="0" />
      <path
         d="m 11.497191,182.98767 h 0.139182 v 0.42168 h 0.50574 v -0.42168 h 0.139181 v 1.0287 h -0.139181 v -0.48989 h -0.50574 v 0.48989 h -0.139182 z"
         style="font-size:1.41111112px;stroke-width:0.26458332"
         id="path3779"
         inkscape:connector-curvature="0" />
    </g>
    <g
       aria-label="TRIGGER"
       style="font-style:normal;font-weight:normal;font-size:1.41111112px;line-height:1.25;font-family:sans-serif;letter-spacing:0px;word-spacing:0px;fill:#000000;fill-opacity:1;stroke:none;stroke-width:0.26458332"
       id="text3784">
      <path
         d="m 7.2207533,246.14692 h 0.8702311 v 0.11714 H 7.7258043 v 0.91157 H 7.5859334 v -0.91157 H 7.2207533 Z"
         style="font-size:1.41111112px;stroke-width:0.26458332"
         id="path3883" />
      <path
         d="m 8.7138576,246.69332 q 0.044786,0.0152 0.086816,0.0648 0.042719,0.0496 0.085438,0.13643 l 0.1412489,0.28112 H 8.8778442 l -0.1316027,-0.2639 q -0.050987,-0.10335 -0.099219,-0.13711 -0.047542,-0.0338 -0.1302246,-0.0338 H 8.365214 v 0.43477 H 8.2260321 v -1.02871 h 0.3141927 q 0.1763889,0 0.2632053,0.0737 0.086816,0.0737 0.086816,0.22255 0,0.0971 -0.045475,0.16123 -0.044786,0.0641 -0.1309136,0.0889 z M 8.365214,246.2613 v 0.36518 h 0.1750108 q 0.1005968,0 0.1515842,-0.0462 0.051676,-0.0469 0.051676,-0.13712 0,-0.0903 -0.051676,-0.13574 -0.050987,-0.0462 -0.1515842,-0.0462 z"
         style="font-size:1.41111112px;stroke-width:0.26458332"
         id="path3885" />
      <path
         d="m 9.2071953,246.14692 h 0.1391819 v 1.02871 H 9.2071953 Z"
         style="font-size:1.41111112px;stroke-width:0.26458332"
         id="path3887" />
      <path
         d="m 10.324784,247.02887 v -0.2763 h -0.227376 v -0.11438 h 0.36518 v 0.44167 q -0.08061,0.0572 -0.177767,0.0868 -0.09715,0.0289 -0.207395,0.0289 -0.2411563,0 -0.3775821,-0.14056 -0.1357367,-0.14125 -0.1357367,-0.39274 0,-0.25218 0.1357367,-0.39274 0.1364258,-0.14125 0.3775821,-0.14125 0.100597,0 0.190859,0.0248 0.09095,0.0248 0.167431,0.073 v 0.14814 q -0.07717,-0.0655 -0.163986,-0.0985 -0.08682,-0.0331 -0.18259,-0.0331 -0.1887915,0 -0.2838762,0.10542 -0.094396,0.10542 -0.094396,0.31419 0,0.20808 0.094396,0.3135 0.095085,0.10542 0.2838762,0.10542 0.07372,0 0.131602,-0.0124 0.05788,-0.0131 0.104042,-0.04 z"
         style="font-size:1.41111112px;stroke-width:0.26458332"
         id="path3889" />
      <path
         d="m 11.418947,247.02887 v -0.2763 H 11.19157 v -0.11438 h 0.365181 v 0.44167 q -0.08062,0.0572 -0.177767,0.0868 -0.09715,0.0289 -0.207395,0.0289 -0.241157,0 -0.377583,-0.14056 -0.135736,-0.14125 -0.135736,-0.39274 0,-0.25218 0.135736,-0.39274 0.136426,-0.14125 0.377583,-0.14125 0.100597,0 0.190858,0.0248 0.09095,0.0248 0.167432,0.073 v 0.14814 q -0.07717,-0.0655 -0.163987,-0.0985 -0.08682,-0.0331 -0.18259,-0.0331 -0.188791,0 -0.283876,0.10542 -0.0944,0.10542 -0.0944,0.31419 0,0.20808 0.0944,0.3135 0.09508,0.10542 0.283876,0.10542 0.07373,0 0.131603,-0.0124 0.05788,-0.0131 0.104042,-0.04 z"
         style="font-size:1.41111112px;stroke-width:0.26458332"
         id="path3891" />
      <path
         d="m 11.811688,246.14692 h 0.650434 v 0.11714 H 11.95087 v 0.30454 h 0.489892 v 0.11714 H 11.95087 v 0.37276 h 0.523654 v 0.11713 h -0.662836 z"
         style="font-size:1.41111112px;stroke-width:0.26458332"
         id="path3893" />
      <path
         d="m 13.192482,246.69332 q 0.04479,0.0152 0.08682,0.0648 0.04272,0.0496 0.08544,0.13643 l 0.141249,0.28112 h -0.149518 l -0.131602,-0.2639 q -0.05099,-0.10335 -0.09922,-0.13711 -0.04754,-0.0338 -0.130225,-0.0338 h -0.151584 v 0.43477 h -0.139182 v -1.02871 h 0.314193 q 0.176389,0 0.263205,0.0737 0.08682,0.0737 0.08682,0.22255 0,0.0971 -0.04547,0.16123 -0.04479,0.0641 -0.130914,0.0889 z m -0.348644,-0.43202 v 0.36518 h 0.175011 q 0.100597,0 0.151584,-0.0462 0.05168,-0.0469 0.05168,-0.13712 0,-0.0903 -0.05168,-0.13574 -0.05099,-0.0462 -0.151584,-0.0462 z"
         style="font-size:1.41111112px;stroke-width:0.26458332"
         id="path3895" />
    </g>
    <g
       aria-label="OUT
"
       style="font-style:normal;font-weight:normal;font-size:1.41111112px;line-height:1.25;font-family:sans-serif;letter-spacing:0px;word-spacing:0px;fill:#000000;fill-opacity:1;stroke:none;stroke-width:0.26458332"
       id="text3788">
      <path
         d="m 9.5086246,276.0457 q -0.1515842,0 -0.2411567,0.113 -0.088883,0.113 -0.088883,0.30799 0,0.19431 0.088883,0.3073 0.089573,0.113 0.2411567,0.113 0.1515842,0 0.2397786,-0.113 0.088883,-0.11299 0.088883,-0.3073 0,-0.19499 -0.088883,-0.30799 -0.088194,-0.113 -0.2397786,-0.113 z m 0,-0.113 q 0.216352,0 0.3458876,0.14538 0.1295356,0.1447 0.1295356,0.38861 0,0.24323 -0.1295356,0.38861 -0.1295356,0.14469 -0.3458876,0.14469 -0.217041,0 -0.3472656,-0.14469 -0.1295356,-0.1447 -0.1295356,-0.38861 0,-0.24391 0.1295356,-0.38861 0.1302246,-0.14538 0.3472656,-0.14538 z"
         style="font-size:1.41111112px;stroke-width:0.26458332"
         id="path3876" />
      <path
         d="m 10.18593,275.95131 h 0.139871 v 0.62494 q 0,0.16536 0.05994,0.2384 0.05995,0.0723 0.194303,0.0723 0.13367,0 0.193615,-0.0723 0.05994,-0.073 0.05994,-0.2384 v -0.62494 h 0.139871 v 0.64216 q 0,0.20119 -0.09991,0.30386 -0.09922,0.10266 -0.293522,0.10266 -0.194992,0 -0.2949,-0.10266 -0.09922,-0.10267 -0.09922,-0.30386 z"
         style="font-size:1.41111112px;stroke-width:0.26458332"
         id="path3878" />
      <path
         d="m 11.09268,275.95131 h 0.870231 v 0.11713 h -0.36518 v 0.91157 H 11.45786 v -0.91157 h -0.36518 z"
         style="font-size:1.41111112px;stroke-width:0.26458332"
         id="path3880" />
    </g>
  </g>
</svg>
